# exported by https://3dviewer.net
mtllib model.mtl
g headlight
v 15.546829190842711 77.82959237884099 -125.05348433028934
v 13.40417730373742 63.35758352040325 -122.64590737391973
v -12.29240752667917 63.491157855965994 -128.4889529329412
v 15.546829190842711 77.82959237884099 -125.05348433028934
v -12.29240752667917 63.491157855965994 -128.4889529329412
v -9.355955514231958 76.84332145533554 -130.5256792736366
v 97.86942546265232 76.14079735567151 -83.37300778461274
v 98.20643182299433 62.76718656371396 -79.8967686543251
v 76.53188978910939 62.94398051919595 -94.88531317917399
v 97.86942546265232 76.14079735567151 -83.37300778461274
v 76.53188978910939 62.94398051919595 -94.88531317917399
v 77.01696930909296 77.42684953522165 -98.02181237936406
vn 0.21724056930494104 -0.19250709574079156 -0.956946995574494
vn 0.21724056930494104 -0.19250709574079156 -0.956946995574494
vn 0.21724056930494104 -0.19250709574079156 -0.956946995574494
vn 0.21724056930494104 -0.19250709574079156 -0.956946995574494
vn 0.21724056930494104 -0.19250709574079156 -0.956946995574494
vn 0.21724056930494104 -0.19250709574079156 -0.956946995574494
vn 0.5562954295708474 -0.19472853070586177 -0.8078466398823866
vn 0.5562954295708474 -0.19472853070586177 -0.8078466398823866
vn 0.5562954295708474 -0.19472853070586177 -0.8078466398823866
vn 0.5562954295708474 -0.19472853070586177 -0.8078466398823866
vn 0.5562954295708474 -0.19472853070586177 -0.8078466398823866
vn 0.5562954295708474 -0.19472853070586177 -0.8078466398823866
vt 0.11439602822065353 0.1143960952758789
vt 0.8882809281349182 0.11171913146972656
vt 0.8846253156661987 0.8846253156661987
vt 0.11439602822065353 0.1143960952758789
vt 0.8846253156661987 0.8846253156661987
vt 0.11129266768693924 0.8887073397636414
vt 0.11129266768693924 0.11129271984100342
vt 0.8846253156661987 0.11537468433380127
vt 0.8882809281349182 0.8882809281349182
vt 0.11129266768693924 0.11129271984100342
vt 0.8882809281349182 0.8882809281349182
vt 0.11439602822065353 0.8856039643287659
usemtl headlight
f 1/1/1 2/2/2 3/3/3
f 4/4/4 5/5/5 6/6/6
f 7/7/7 8/8/8 9/9/9
f 10/10/10 11/11/11 12/12/12
g backlight
v -74.37607356221905 60.44307540853681 81.23181646840237
v -74.32439769867267 74.42273148655303 81.32258717149494
v -99.3558491807017 75.06200505961476 70.31724729732224
v -74.37607356221905 60.44307540853681 81.23181646840237
v -99.3558491807017 75.06200505961476 70.31724729732224
v -99.40928184455151 60.60708911452718 70.22339070484547
v -14.42352930872384 60.05027561812772 107.59612124737683
v 10.60967897360861 59.88626191213735 118.60454701093373
v 10.655390645361528 72.25245003173153 118.68484137468104
v -14.42352930872384 60.05027561812772 107.59612124737683
v 10.655390645361528 72.25245003173153 118.68484137468104
v -14.376060838430067 72.8917231279694 107.67950149741229
vn -0.40256955939126177 -0.004455504844723245 0.9153785546581843
vn -0.40256955939126177 -0.004455504844723245 0.9153785546581843
vn -0.40256955939126177 -0.004455504844723245 0.9153785546581843
vn -0.40256955939126177 -0.004455504844723245 0.9153785546581843
vn -0.40256955939126177 -0.004455504844723245 0.9153785546581843
vn -0.40256955939126177 -0.004455504844723245 0.9153785546581843
vn -0.4025695593912622 -0.004455504844723243 0.9153785546581841
vn -0.4025695593912622 -0.004455504844723243 0.9153785546581841
vn -0.4025695593912622 -0.004455504844723243 0.9153785546581841
vn -0.4025695593912622 -0.004455504844723243 0.9153785546581841
vn -0.4025695593912622 -0.004455504844723243 0.9153785546581841
vn -0.4025695593912622 -0.004455504844723243 0.9153785546581841
vt 0.23279163241386414 0.5344167351722717
vt 0.23283234238624573 0.9656646847724915
vt 0.01724856160581112 0.9655028581619263
vt 0.23279163241386414 0.5344167351722717
vt 0.01724856160581112 0.9655028581619263
vt 0.01720837503671646 0.5344167351722717
vt 0.7673875093460083 0.5347750186920166
vt 0.9826124906539917 0.5347750186920166
vt 0.9826669096946716 0.9653338193893433
vt 0.7673875093460083 0.5347750186920166
vt 0.9826669096946716 0.9653338193893433
vt 0.7674407958984375 0.965118408203125
usemtl rear lights
f 13/13/13 14/14/14 15/15/15
f 16/16/16 17/17/17 18/18/18
f 19/19/19 20/20/20 21/21/21
f 22/22/22 23/23/23 24/24/24
